<?xml version="1.0" standalone="no"?>
<!DOCTYPE svg PUBLIC "-//W3C//DTD SVG 20010904//EN"
 "http://www.w3.org/TR/2001/REC-SVG-20010904/DTD/svg10.dtd">
<svg version="1.0" xmlns="http://www.w3.org/2000/svg"
 width="170.000000pt" height="60.000000pt" viewBox="0 0 300.000000 120.000000"
 preserveAspectRatio="xMidYMid meet">

<g transform="translate(0.000000,120.000000) scale(0.1200000,-0.100000)"
fill="#445ded" stroke="none">
<path d="M365 841 c-8 -13 35 -41 63 -41 21 0 22 -3 16 -37 -4 -21 -21 -82
-40 -135 -35 -104 -31 -143 6 -55 44 102 107 197 132 197 13 0 9 -61 -7 -120
-30 -113 -29 -107 -12 -90 8 8 32 47 53 85 39 73 74 124 74 109 0 -5 -7 -46
-16 -91 -9 -45 -14 -89 -10 -98 10 -28 35 -28 68 1 l33 27 3 -27 c6 -52 67
-43 97 14 13 26 21 30 55 30 22 0 40 -2 40 -4 0 -2 -10 -22 -22 -45 -24 -45
-17 -69 9 -31 27 38 75 90 83 90 5 0 8 -21 7 -47 -2 -43 0 -48 21 -51 13 -2
34 3 46 12 13 8 27 11 32 6 5 -5 25 0 44 10 19 11 41 22 48 26 6 3 20 -4 30
-16 22 -27 59 -20 94 17 l23 25 -40 -21 c-49 -26 -52 -26 -64 -2 -8 15 -2 43
29 125 41 109 45 126 32 126 -7 0 -17 -20 -47 -97 -16 -39 -35 -57 -35 -33 0
13 -23 13 -53 -1 -28 -13 -67 -76 -67 -109 0 -27 -26 -49 -59 -50 -21 0 -23 4
-19 33 3 17 9 41 13 51 7 16 5 18 -16 14 -13 -3 -32 -9 -41 -13 -11 -4 -18 -3
-18 3 0 6 20 20 44 31 24 10 52 31 62 46 19 29 36 115 22 115 -4 0 -8 -15 -8
-32 0 -46 -19 -79 -58 -101 -18 -11 -35 -18 -37 -15 -9 9 70 151 87 156 22 5
24 22 3 22 -27 0 -48 -30 -110 -161 -23 -50 -30 -57 -62 -62 -44 -7 -53 -3
-53 27 0 12 -3 26 -6 29 -8 8 -47 -12 -57 -30 -14 -23 -109 -82 -123 -76 -16
6 -14 37 7 141 7 34 10 64 6 68 -11 11 -37 -17 -63 -67 -35 -71 -44 -70 -44 5
0 49 -4 66 -14 66 -20 0 -64 -37 -71 -60 -12 -37 -23 -20 -14 21 13 55 4 79
-27 79 -14 0 -34 5 -44 10 -12 6 -21 6 -25 1z m837 -168 c10 -37 -49 -123 -83
-123 -27 0 7 92 45 122 27 22 33 22 38 1z m-372 -23 c0 -21 -15 -27 -25 -10
-7 12 2 30 16 30 5 0 9 -9 9 -20z m-10 -53 c-1 -22 -27 -47 -49 -47 -25 0 -28
26 -5 58 12 18 19 20 35 12 10 -6 19 -16 19 -23z"/>
<path d="M1507 812 c-9 -10 -17 -21 -17 -25 0 -3 -10 -23 -22 -44 -39 -65 -88
-203 -72 -203 8 0 14 9 14 20 0 25 17 26 25 2 12 -39 77 -47 135 -17 30 16 33
16 50 -3 26 -27 63 -18 127 30 29 22 56 37 61 34 5 -3 7 -20 3 -37 -5 -26 -14
-33 -58 -48 -56 -19 -84 -45 -109 -101 -20 -47 -6 -80 35 -80 36 0 92 60 117
127 9 23 20 43 23 43 4 0 8 33 10 72 1 40 7 79 13 86 6 7 8 16 4 20 -10 9
-116 9 -116 0 0 -5 23 -8 50 -8 48 0 50 -1 40 -21 -7 -11 -25 -25 -41 -31 -16
-6 -36 -23 -44 -39 -10 -18 -27 -32 -48 -37 -56 -15 -67 1 -42 61 12 29 -13
19 -27 -10 -16 -34 -58 -55 -110 -57 -46 -1 -58 13 -58 72 0 46 3 48 39 28 13
-7 32 -11 41 -9 37 10 68 102 52 158 -10 37 -49 46 -75 17z m57 -28 c9 -36 -3
-89 -25 -113 -16 -17 -24 -19 -40 -10 -31 16 -33 33 -9 85 30 69 62 85 74 38z
m226 -287 c0 -17 -52 -97 -78 -120 -30 -27 -58 -18 -55 18 3 39 31 76 74 97
41 21 59 23 59 5z"/>
<path d="M1674 739 c-3 -6 -1 -16 5 -22 8 -8 11 -5 11 11 0 24 -5 28 -16 11z"/>
<path d="M2274 668 c-33 -36 -54 -78 -54 -108 0 -30 38 -35 72 -10 l30 22 15
-22 c26 -36 69 -24 132 37 30 29 58 53 62 53 4 0 5 -16 2 -36 -6 -39 13 -65
46 -63 10 0 7 4 -8 12 -21 10 -23 15 -17 64 7 62 0 65 -47 23 -40 -35 -51 -38
-42 -10 10 31 -14 24 -25 -7 -23 -64 -33 -74 -64 -71 -31 3 -31 3 -31 63 0 93
-20 108 -71 53z m45 -15 c-5 -14 -8 -32 -5 -39 5 -13 -29 -47 -56 -57 -31 -11
-28 29 6 71 47 58 72 70 55 25z"/>
<path d="M1901 664 c-24 -31 -28 -91 -7 -119 12 -17 17 -18 42 -6 15 7 34 21
42 32 17 24 29 24 37 -1 4 -11 18 -28 32 -37 23 -15 27 -15 60 2 19 11 45 38
59 60 24 42 32 95 14 95 -5 0 -10 -11 -10 -25 0 -34 -48 -104 -76 -111 -35 -9
-64 12 -64 46 0 16 5 32 10 35 6 3 10 14 10 23 -1 13 -5 12 -21 -8 -86 -105
-129 -127 -129 -66 0 18 9 44 19 58 12 14 16 29 12 37 -6 9 -14 5 -30 -15z"/>
</g>
</svg>
