<?xml version="1.0" standalone="no"?>
<!DOCTYPE svg PUBLIC "-//W3C//DTD SVG 20010904//EN"
 "http://www.w3.org/TR/2001/REC-SVG-20010904/DTD/svg10.dtd">
<svg version="1.0" xmlns="http://www.w3.org/2000/svg"
 width="300.000000pt" height="75.000000pt" viewBox="0 0 300.000000 75.000000"
 preserveAspectRatio="xMidYMid meet">

<g transform="translate(0.000000,75.000000) scale(0.100000,-0.100000)"
fill="#0369a1" stroke="none">
<path d="M1178 560 c-14 -10 -31 -32 -37 -48 -10 -24 -20 -31 -50 -35 -21 -2
-57 -17 -80 -31 -23 -15 -46 -24 -51 -21 -14 9 -32 75 -27 97 9 31 -3 48 -33
48 -35 0 -75 -32 -110 -86 -26 -42 -27 -43 -44 -22 -25 29 -110 21 -164 -15
l-40 -26 -6 25 c-4 14 -4 35 -1 45 17 53 -55 66 -101 18 l-29 -31 -5 39 c-4
30 -11 40 -32 47 -35 12 -46 3 -154 -133 -81 -103 -82 -105 -82 -160 1 -82 37
-96 94 -36 l33 36 21 -21 c25 -25 60 -26 93 0 33 26 41 25 56 -6 11 -25 15
-26 59 -20 59 9 70 9 104 1 18 -5 41 0 71 14 54 26 72 26 98 0 23 -23 60 -20
92 8 16 15 19 15 38 -5 23 -25 28 -26 64 -12 18 7 33 7 47 -1 15 -8 30 -7 63
5 34 13 48 14 68 5 30 -14 78 6 126 53 26 25 31 37 29 73 0 23 2 46 5 52 4 6
-3 21 -14 34 -16 18 -19 32 -15 59 10 62 -37 89 -86 50z m56 -6 c24 -9 20 -26
-19 -83 -51 -74 -43 -106 15 -61 37 29 52 26 38 -5 -10 -23 -90 -85 -110 -85
-4 0 -16 9 -24 19 -16 19 -17 19 -48 0 -33 -20 -81 -25 -91 -9 -4 6 -17 4 -35
-5 -35 -18 -56 -11 -64 21 l-7 25 -33 -26 c-41 -31 -86 -34 -86 -5 0 28 -40
25 -109 -8 -50 -24 -55 -25 -81 -10 -23 13 -31 13 -51 2 -53 -29 -89 -12 -89
44 l0 34 -46 -41 c-26 -23 -53 -41 -60 -41 -33 0 -44 13 -44 52 l0 39 -50 -60
c-47 -57 -90 -80 -90 -48 0 6 42 64 93 127 62 78 99 115 112 115 18 0 20 -6
18 -70 l-3 -70 53 59 c37 41 59 57 73 54 21 -4 22 -13 10 -95 -8 -65 5 -69 60
-18 62 59 165 75 172 28 5 -36 26 -27 61 27 36 56 75 90 102 90 25 0 24 -13
-5 -47 -23 -28 -46 -66 -46 -78 0 -3 13 2 29 11 25 15 32 15 45 5 9 -8 16 -19
16 -25 0 -6 4 -17 9 -25 8 -12 15 -9 41 13 43 36 97 57 126 50 17 -4 24 -2 24
8 0 18 57 98 69 98 5 0 16 -3 25 -6z"/>
<path d="M647 412 c-32 -20 -36 -43 -7 -35 19 5 46 40 38 48 -2 2 -16 -4 -31
-13z"/>
<path d="M1088 414 c-16 -8 -28 -19 -28 -24 0 -17 18 -11 47 15 31 27 22 32
-19 9z"/>
<path d="M1758 554 c-21 -11 -28 -22 -28 -44 0 -17 -3 -30 -7 -30 -5 0 -18 -3
-29 -6 -17 -4 -23 0 -28 20 -11 44 -57 60 -157 53 -48 -3 -97 -11 -109 -17
-42 -23 -55 -98 -32 -192 5 -20 7 -49 4 -64 -10 -54 60 -73 104 -29 l26 26 44
-41 c50 -46 90 -52 120 -19 12 14 25 18 41 14 13 -3 38 1 57 9 29 12 37 12 46
1 13 -16 182 -14 202 2 10 8 18 8 32 -3 25 -18 56 -18 82 0 17 12 22 12 39 0
26 -20 51 -18 97 8 32 18 42 20 56 10 40 -29 62 -32 103 -15 34 13 44 14 64 3
18 -9 31 -10 47 -3 15 6 31 6 51 -1 23 -9 35 -7 67 11 33 20 40 21 50 8 19
-23 71 -17 115 13 45 31 73 78 57 94 -7 7 -7 18 1 35 8 19 7 27 -6 40 -13 14
-20 14 -47 3 -28 -12 -32 -11 -47 9 -12 19 -21 22 -48 17 -19 -4 -36 -2 -40 4
-13 20 -64 10 -98 -20 -36 -31 -45 -29 -60 13 -11 29 -34 31 -104 8 -62 -20
-67 -21 -84 -5 -16 14 -23 15 -45 5 -20 -9 -30 -9 -40 0 -8 7 -29 9 -50 6 -19
-3 -46 -1 -59 5 -18 8 -32 8 -55 -2 -24 -10 -33 -10 -45 0 -16 13 -153 8 -191
-7 -14 -5 -16 -1 -10 29 11 60 -28 84 -86 52z m67 -14 c3 -5 1 -19 -5 -30 -13
-24 -58 -27 -67 -4 -11 29 56 61 72 34z m-190 -35 c39 -38 30 -62 -39 -97
l-30 -15 27 -27 c14 -14 37 -26 52 -26 30 0 33 -20 5 -45 -27 -25 -57 -14
-110 40 l-45 46 43 37 c49 43 55 65 15 60 -24 -3 -32 -13 -60 -77 -34 -80 -47
-93 -81 -84 -30 7 -28 18 13 87 20 32 34 60 32 62 -2 2 -18 -1 -36 -7 -40 -14
-50 -5 -30 29 17 31 47 39 152 41 60 1 71 -2 92 -24z m123 -48 c8 -10 6 -22
-8 -45 -24 -39 -24 -42 -3 -42 9 0 42 20 73 45 55 43 60 44 136 47 96 4 105
-13 31 -53 -48 -26 -52 -39 -10 -39 13 0 39 16 62 39 48 48 74 63 95 55 20 -8
20 -10 -5 -50 -31 -50 0 -45 41 6 29 36 57 50 73 34 3 -3 -4 -21 -15 -40 -11
-19 -18 -37 -15 -41 11 -11 37 6 47 31 13 34 50 59 67 44 7 -6 11 -19 8 -29
-5 -15 2 -14 52 11 62 32 113 42 120 24 2 -6 -15 -19 -37 -29 -39 -17 -72 -45
-54 -45 5 0 24 9 42 20 39 24 70 26 78 5 9 -23 23 -18 57 20 19 22 40 35 55
35 22 0 24 -3 19 -30 l-6 -30 39 26 c33 22 42 24 55 14 9 -7 13 -21 10 -31 -8
-25 9 -24 51 1 22 14 35 17 39 10 14 -23 -75 -90 -120 -90 -9 0 -19 9 -22 20
-7 26 -16 25 -61 -5 -42 -29 -55 -31 -71 -11 -10 12 -16 12 -43 -2 -30 -15
-32 -14 -46 6 l-14 21 -39 -19 c-45 -23 -87 -26 -95 -6 -10 27 -51 28 -90 1
-45 -31 -50 -31 -77 -1 l-22 24 -28 -24 c-34 -29 -38 -29 -68 -5 -24 19 -24
19 -57 -1 -29 -18 -39 -19 -72 -9 -29 9 -45 8 -64 -1 -20 -8 -29 -9 -38 0 -15
15 3 37 62 73 38 24 41 29 21 29 -13 0 -44 -17 -70 -39 -91 -75 -135 -85 -167
-35 -20 30 -12 68 23 100 29 27 46 30 61 11z"/>
</g>
</svg>
